<svg width="229" height="265" viewBox="0 0 229 265" fill="none" xmlns="http://www.w3.org/2000/svg">
<path fill-rule="evenodd" clip-rule="evenodd" d="M69.2177 189.686C75.2177 188.486 96.051 179.846 105.718 175.675C84.3214 190.176 63.1832 204.667 47.6367 215.397L51.844 219.532C64.3334 215.055 83.1209 210.418 110.158 207.19C119.976 206.017 128.758 204.598 136.616 202.964C159.472 198.212 174.488 191.647 184.418 184.071C194.334 176.506 199.204 167.915 201.737 159.049C206.39 142.764 220.967 134.474 228.58 132.008C226.47 130.546 224.556 129.203 222.803 127.974L222.801 127.972C220.523 126.374 218.518 124.968 216.71 123.74C213.33 121.445 210.69 119.811 208.328 118.768C205.978 117.731 203.912 117.283 201.68 117.358C199.436 117.433 196.992 118.039 193.887 119.157L193.718 118.686C190.391 119.884 178.008 127.607 161.318 138.517C164.811 117.04 168.173 90.3255 170.111 73.186L169.614 73.13L169.65 72.8073L122.648 -2.67029e-05C111.964 11.7519 104.334 30.9349 99.1381 50.2907C93.879 69.88 91.1337 89.5636 90.2177 101.705V108.501C95.5965 114.794 100.454 123.576 104.472 132.175C108.522 140.845 111.734 149.361 113.774 155.016L114.235 156.293L113.056 155.62L64.1976 127.75C60.8217 129.368 57.4349 130.933 54.0329 132.506L54.0306 132.507C36.6179 140.555 18.804 148.789 3.35574e-05 165.166C2.80224 167.3 7.80418 169.883 13.9412 172.564C20.4177 175.393 28.1074 178.31 35.6918 180.9C43.2763 183.491 50.7471 185.752 56.785 187.271C59.8046 188.031 62.4586 188.604 64.5856 188.939C66.7366 189.279 68.2799 189.364 69.1196 189.196L69.2177 189.686ZM110.277 208.183C119.587 207.071 127.975 205.737 135.533 204.207C130.594 211.089 126.189 222.023 122.654 233.014C118.975 244.455 116.219 256.024 114.783 263.304C111.405 264.396 106.931 264.664 101.851 264.345C96.6421 264.017 90.8404 263.076 85.0112 261.81C73.5574 259.323 62.0384 255.595 54.7798 252.864C55.2575 250.393 56.8091 247.633 59.0967 244.753C61.499 241.729 64.6734 238.621 68.1434 235.64C75.083 229.68 83.1579 224.272 88.4729 221.116L88.1052 220.199C85.4467 220.812 82.0002 222.238 78.1865 224.125C74.3652 226.017 70.1466 228.386 65.9358 230.907C57.6218 235.884 49.3182 241.461 44.1282 245.137C43.196 244.825 42.1588 244.132 41.071 243.152C39.9047 242.101 38.7185 240.757 37.5872 239.304C35.4231 236.524 33.4897 233.383 32.3134 231.235C33.2689 230.07 35.14 228.525 38.1571 226.758C41.3822 224.87 45.8816 222.749 51.8875 220.579C64.2861 216.102 83.0789 211.43 110.277 208.183Z" fill="url(#paint0_linear_667_97)"/>
<defs>
<linearGradient id="paint0_linear_667_97" x1="-3.7389e-06" y1="264.471" x2="275.865" y2="235.285" gradientUnits="userSpaceOnUse">
<stop stop-color="#336CFF"/>
<stop offset="0.494792" stop-color="#20BDFF"/>
<stop offset="1" stop-color="#8CECD5"/>
</linearGradient>
</defs>
</svg>
